#!OML:ASF H:\charlestonDancing\Project 1\Capture day 1\Session 1\femaleDancer.ASF
:FULLY-SPECIFIED
:DEGREES
296
root -11.8229 17.8878 2.7417 215.838 -100.996 -206.557
lowerback 19.1633 -3.78027 2.50846
upperback 2.70078 -4.61626 -0.43758
thorax -8.01551 -2.3535 -0.697649
lowerneck 7.53317 -15.4257 -10.9165
upperneck -6.33331 -20.9687 14.6724
head -0.348687 -10.8426 6.09712
rclavicle -2.62396e-014 -2.38542e-015
rhumerus -18.4686 6.12336 -77.4892
rradius 30.5068
rwrist 52.2166
rhand -38.4405 -40.7041
rfingers 7.12502
rthumb -11.4641 289.629
lclavicle -2.62396e-014 -2.38542e-015
lhumerus -34.3317 -21.4084 86.9201
lradius 64.9398
lwrist -24.4224
lhand -31.8296 -5.6905
lfingers 7.12502
lthumb -5.08419 24.2285
rfemur -16.9924 1.87137 31.0745
rtibia 34.3949
rfoot -17.1799 9.21368
rtoes -21.088
lfemur -44.6288 -2.74339 -14.0589
ltibia 63.7751
lfoot 8.58053 -21.0151
ltoes -10.7339
297
root -11.7335 17.9171 2.76869 216.115 -100.496 -206.405
lowerback 19.1553 -3.96354 2.42358
upperback 2.51984 -4.86117 -0.372282
thorax -8.20541 -2.4656 -0.50829
lowerneck 7.40638 -15.4772 -11.2619
upperneck -6.2513 -21.0648 14.669
head -0.257188 -10.8785 6.11361
rclavicle -1.51076e-014 -1.11319e-014
rhumerus -19.0656 6.9089 -75.7148
rradius 29.9318
rwrist 53.4668
rhand -39.2839 -41.9167
rfingers 7.12502
rthumb -12.2774 288.464
lclavicle -1.51076e-014 -1.11319e-014
lhumerus -35.4583 -23.4426 85.6111
lradius 68.0643
lwrist -23.8322
lhand -32.5814 -7.26909
lfingers 7.12502
lthumb -5.81009 22.6313
rfemur -17.7123 6.18703 29.6195
rtibia 34.5679
rfoot -18.6532 11.493
rtoes -25.4623
lfemur -43.8383 -5.4614 -11.4033
ltibia 66.0808
lfoot 5.31392 -19.6458
ltoes -18.6583
298
root -11.6595 17.9191 2.79567 215.818 -99.8658 -205.598
lowerback 18.874 -4.14168 2.17019
upperback 2.30029 -5.14008 -0.31815
thorax -8.27507 -2.58829 -0.244427
lowerneck 7.31112 -15.4818 -11.3945
upperneck -6.40845 -21.0698 14.4094
head -0.304439 -10.8663 6.05818
rclavicle -3.89618e-014 -3.49861e-014
rhumerus -19.7793 8.12632 -73.7465
rradius 29.2736
rwrist 55.021
rhand -39.9775 -42.6542
rfingers 7.12502
rthumb -12.9461 287.767
lclavicle -3.89618e-014 -3.49861e-014
lhumerus -36.7806 -24.9848 83.836
lradius 71.0031
lwrist -22.6236
lhand -33.3553 -8.1322
lfingers 7.12502
lthumb -6.55719 21.7463
rfemur -18.631 10.5253 27.9569
rtibia 34.8383
rfoot -20.1926 14.0731
rtoes -29.9045
lfemur -43.025 -7.6379 -9.34067
ltibia 68.3919
lfoot 6.97751 -19.8309
ltoes -15.8919
299
root -11.6041 17.9004 2.82034 213.036 -99.0927 -202.239
lowerback 18.23 -4.31508 1.51625
upperback 2.09304 -5.50663 -0.349124
thorax -8.10262 -2.74301 0.14405
lowerneck 7.36281 -15.453 -11.353
upperneck -6.8914 -21.0097 14.1078
head -0.501914 -10.8308 6.00805
rclavicle -3.26007e-014 2.38542e-015
rhumerus -20.487 9.65418 -71.6197
rradius 28.4589
rwrist 56.5871
rhand -40.2926 -42.5657
rfingers 7.12502
rthumb -13.2499 287.875
lclavicle -3.26007e-014 2.38542e-015
lhumerus -38.2042 -26.0546 81.6324
lradius 73.5944
lwrist -21.3535
lhand -33.7462 -8.02463
lfingers 7.12502
lthumb -6.93456 21.8418
rfemur -19.7813 14.4532 25.9335
rtibia 35.2021
rfoot -21.0276 17.0126
rtoes -26.5441
lfemur -42.1264 -9.18231 -8.31201
ltibia 70.6523
lfoot 8.75546 -21.5424
ltoes -23.2214
300
root -11.5542 17.8492 2.84515 208.568 -98.5342 -197.259
lowerback 17.4761 -4.52652 0.860554
upperback 1.90575 -5.91637 -0.363834
thorax -7.8365 -2.9208 0.543303
lowerneck 7.55317 -15.4853 -10.9959
upperneck -7.67501 -21.0098 13.5791
head -0.861827 -10.827 5.88789
rclavicle -6.95746e-014 3.81667e-014
rhumerus -21.1828 10.9213 -69.2677
rradius 27.3833
rwrist 58.4426
rhand -39.9964 -41.9688
rfingers 7.12502
rthumb -12.9643 288.454
lclavicle -6.95746e-014 3.81667e-014
lhumerus -39.5274 -26.8385 79.1758
lradius 75.6375
lwrist -20.0623
lhand -34.0577 -7.82057
lfingers 7.12502
lthumb -7.23528 22.0357
rfemur -20.5534 15.3664 24.9169
rtibia 35.6985
rfoot -23.2805 13.3485
rtoes -32.588
lfemur -41.2475 -10.146 -7.97312
ltibia 72.9187
lfoot 14.3839 -20.8527
ltoes -14.8051
301
root -11.5061 17.7734 2.86346 205.216 -98.2819 -193.705
lowerback 16.9732 -4.76141 0.535148
upperback 1.76349 -6.27914 -0.273717
thorax -7.67175 -3.0852 0.869467
lowerneck 7.8623 -15.5531 -10.5459
upperneck -8.53145 -21.0676 12.9811
head -1.27383 -10.8511 5.75377
rclavicle 1.78906e-014 3.49861e-014
rhumerus -21.9856 11.5439 -66.7336
rradius 26.1187
rwrist 60.7324
rhand -39.0095 -41.1624
rfingers 7.12502
rthumb -12.0129 289.202
lclavicle 1.78906e-014 3.49861e-014
lhumerus -40.6698 -27.3928 76.509
lradius 76.8954
lwrist -19.0333
lhand -34.4321 -7.78028
lfingers 7.12502
lthumb -7.59668 22.0633
rfemur -20.7947 14.918 24.8898
rtibia 36.2007
rfoot -21.5771 10.9937
rtoes -22.7838
lfemur -40.0975 -10.535 -7.83993
ltibia 75.0696
lfoot 20.3626 -18.3767
ltoes -14.8468
302
root -11.4633 17.6917 2.87353 204.005 -98.179 -192.701
lowerback 16.8257 -4.92838 0.619354
upperback 1.71555 -6.47052 -0.112234
thorax -7.63228 -3.17804 1.02776
lowerneck 8.25729 -15.6541 -10.3755
upperneck -9.29543 -21.2013 12.7047
head -1.59817 -10.9197 5.7397
rclavicle 7.95139e-016 1.98785e-014
rhumerus -22.8134 11.0481 -63.9449
rradius 24.6301
rwrist 63.2027
rhand -37.7375 -40.4084
rfingers 7.12502
rthumb -10.7861 289.889
lclavicle 7.95139e-016 1.98785e-014
lhumerus -41.4655 -27.8293 73.6677
lradius 77.12
lwrist -18.6061
lhand -34.7585 -7.48057
lfingers 7.12502
lthumb -7.91173 22.3514
rfemur -20.5561 14.3437 25.5356
rtibia 36.6672
rfoot -19.9649 9.11956
rtoes -6.60149
lfemur -38.3874 -10.4371 -7.80672
ltibia 76.9007
lfoot 25.6028 -16.2323
ltoes -17.2069
303
root -11.4272 17.6315 2.87808 204.539 -98.0994 -193.815
lowerback 17.1037 -5.00836 1.04054
upperback 1.73934 -6.48207 0.067647
thorax -7.78403 -3.19207 1.01337
lowerneck 8.5631 -15.8115 -10.3349
upperneck -9.84581 -21.4219 12.5627
head -1.80697 -11.0303 5.75255
rclavicle 5.20816e-014 1.90833e-014
rhumerus -23.5772 9.38622 -60.8794
rradius 22.89
rwrist 65.566
rhand -36.8449 -39.9885
rfingers 7.12502
rthumb -9.92497 290.265
lclavicle 5.20816e-014 1.90833e-014
lhumerus -41.7736 -28.0673 70.6932
lradius 76.1322
lwrist -18.965
lhand -34.9397 -7.0251
lfingers 7.12502
lthumb -8.08662 22.8002
rfemur -20.0413 14.4885 26.2442
rtibia 36.9874
rfoot -21.6566 6.3373
rtoes -10.7607
lfemur -36.0069 -9.96632 -7.88901
ltibia 78.1325
lfoot 30.568 -13.5414
ltoes -21.2221
304
root -11.3943 17.5819 2.88897 209.086 -98.1684 -199.189
lowerback 17.6597 -5.13183 2.11355
upperback 1.83042 -6.40922 0.379489
thorax -8.0703 -3.18406 0.782188
lowerneck 8.93192 -15.9032 -10.4817
upperneck -10.4227 -21.5687 12.6319
head -1.99716 -11.1105 5.85524
rclavicle -2.80286e-014 0
rhumerus -24.5898 5.88594 -57.4777
rradius 21.4171
rwrist 68.9089
rhand -36.3337 -39.6925
rfingers 7.12502
rthumb -9.43183 290.539
lclavicle -2.80286e-014 0
lhumerus -41.6774 -27.7537 67.6676
lradius 73.9403
lwrist -19.8627
lhand -35.0697 -6.56518
lfingers 7.12502
lthumb -8.21204 23.2552
rfemur -19.398 14.8574 27.4086
rtibia 37.3133
rfoot -21.5677 4.82171
rtoes -13.993
lfemur -33.2066 -9.17983 -7.57298
ltibia 78.6844
lfoot 35.2838 -11.1762
ltoes -21.0365
305
root -11.3614 17.5334 2.91667 217.82 -98.6295 -209.001
lowerback 18.3893 -5.35675 4.0316
upperback 2.07664 -6.27703 0.858425
thorax -8.34789 -3.17722 0.255729
lowerneck 9.43313 -15.9109 -10.8081
upperneck -11.2869 -21.6123 12.9644
head -2.25443 -11.152 6.08622
rclavicle -2.32578e-014 -1.74931e-014
rhumerus -25.3599 1.73884 -53.9232
rradius 20.213
rwrist 72.1074
rhand -35.7754 -39.2385
rfingers 7.12502
rthumb -8.89306 290.969
lclavicle -2.32578e-014 -1.74931e-014
lhumerus -41.2188 -26.5536 64.7084
lradius 70.7593
lwrist -20.8547
lhand -34.8253 -5.66334
lfingers 7.12502
lthumb -7.97618 24.1662
rfemur -18.7096 14.155 29.3066
rtibia 37.8815
rfoot -21.4233 5.17556
rtoes -13.3628
lfemur -30.0348 -8.11938 -6.66664
ltibia 78.4795
lfoot 39.6702 -9.8481
ltoes -17.4434
306
root -11.3394 17.5194 2.97194 224.233 -98.6509 -214.909
lowerback 17.4953 -5.45616 5.479
upperback 2.00915 -6.1554 1.15659
thorax -8.04642 -3.16365 -0.330845
lowerneck 9.85455 -15.9009 -10.976
upperneck -12.2117 -21.6194 13.1718
head -2.55377 -11.1716 6.26659
rclavicle 1.03368e-013 -4.6118e-014
rhumerus -25.9936 -2.56972 -50.6037
rradius 19.4376
rwrist 74.5842
rhand -35.318 -38.7036
rfingers 7.12502
rthumb -8.45172 291.486
lclavicle 1.03368e-013 -4.6118e-014
lhumerus -40.4516 -24.3661 61.8356
lradius 66.8001
lwrist -21.7124
lhand -34.1906 -4.35546
lfingers 7.12502
lthumb -7.36356 25.4964
rfemur -19.9472 13.6776 29.8086
rtibia 38.8699
rfoot -21.2475 5.86434
rtoes -13.3379
lfemur -28.2589 -6.64884 -6.75749
ltibia 77.3551
lfoot 41.9331 -9.29962
ltoes -14.259
307
root -11.325 17.5196 3.02529 223.749 -97.6632 -214.166
lowerback 16.8186 -5.44556 5.32225
upperback 2.06134 -6.23028 1.01035
thorax -7.62407 -3.19516 -0.447302
lowerneck 10.2283 -15.8105 -11.0085
upperneck -12.9236 -21.5098 13.2901
head -2.82136 -11.1304 6.39474
rclavicle -8.40859e-014 4.77083e-014
rhumerus -26.4036 -6.47808 -47.9857
rradius 18.9717
rwrist 76.1392
rhand -35.2268 -38.4677
rfingers 7.12502
rthumb -8.36364 291.718
lclavicle -8.40859e-014 4.77083e-014
lhumerus -39.5947 -21.2293 59.037
lradius 62.2483
lwrist -22.3134
lhand -34.0976 -2.98392
lfingers 7.12502
lthumb -7.27376 26.8711
rfemur -20.9632 13.0854 28.9511
rtibia 40.3299
rfoot -21.0418 6.0125
rtoes -15.1678
lfemur -25.7652 -5.14814 -8.80282
ltibia 75.194
lfoot 41.5817 -9.14792
ltoes -13.2723
